# xmcd
#
# Track frame offsets:
#	150
#	20118
#	33405
#	70550
#	85519
#	95829
#	113567
#	128833
#	147446
#	160269
#
# Disc length: 2541 seconds
#
# Revision: 0
# Processed by: cddbd v1.5.1PL2 Copyright (c) Steve Scherf et al.
# Submitted via: audiograbber 1.83.01
#
DISCID=7f09eb0a
DTITLE=Danny Bryant's RedEyeBand - Days Like This
DYEAR=2005
DGENRE=Blues
TTITLE0=Losing Game
TTITLE1=Earl Shuffle
TTITLE2=Days Like This (Featuring Walter Trout)
TTITLE3=Heart Working Overtime
TTITLE4=Back In Baltimore
TTITLE5=Long Time Coming
TTITLE6=Last Man Standing
TTITLE7=Blues All Over Me
TTITLE8=Good Time Woman
TTITLE9=Always With Me
EXTD=
EXTT0=
EXTT1=
EXTT2=
EXTT3=
EXTT4=
EXTT5=
EXTT6=
EXTT7=
EXTT8=
EXTT9=
PLAYORDER=
